<svg width="18" height="20" viewBox="0 0 18 20" fill="none" xmlns="http://www.w3.org/2000/svg">
<path d="M1.13721 18.4355C1.13721 19.2995 1.83768 20 2.70172 20H14.5068C15.3708 20 16.0713 19.2995 16.0713 18.4355V3.35913H1.13721V18.4355ZM11.301 6.01384C11.301 5.46395 11.7467 5.01818 12.2966 5.01818H13.0678C13.6177 5.01818 14.0635 5.46395 14.0635 6.01384V17.3454C14.0635 17.8952 13.6177 18.341 13.0678 18.341H12.2966C11.7467 18.341 11.301 17.8952 11.301 17.3454V6.01384ZM7.22295 6.01384C7.22295 5.46395 7.66872 5.01818 8.2186 5.01818H8.98981C9.5397 5.01818 9.98547 5.46395 9.98547 6.01384V17.3454C9.98547 17.8952 9.5397 18.341 8.98981 18.341H8.2186C7.66872 18.341 7.22295 17.8952 7.22295 17.3454V6.01384ZM3.14502 6.01384C3.14502 5.46395 3.59079 5.01818 4.14068 5.01818H4.91188C5.46177 5.01818 5.90754 5.46395 5.90754 6.01384V17.3454C5.90754 17.8952 5.46177 18.341 4.91188 18.341H4.14068C3.59079 18.341 3.14502 17.8952 3.14502 17.3454V6.01384Z" fill="#1D1D1B"/>
<path d="M16.7029 1.0114H10.318C10.0387 1.0114 9.81234 0.784957 9.81234 0.505699C9.81234 0.226441 9.5859 2.97707e-08 9.30664 2.97707e-08H7.90201C7.62275 -9.47947e-05 7.39631 0.226346 7.39631 0.505604C7.39631 0.784957 7.16987 1.0113 6.89061 1.0113H0.505699C0.226441 1.0114 0 1.23784 0 1.5171V2.52859C0 2.80785 0.226441 3.03429 0.505699 3.03429H16.7028C16.982 3.03429 17.2085 2.80785 17.2085 2.52859V1.5171C17.2086 1.23784 16.9821 1.0114 16.7029 1.0114Z" fill="#1D1D1B"/>
</svg>
