<svg width="67" height="67" viewBox="0 0 67 67" fill="none" xmlns="http://www.w3.org/2000/svg">
<path d="M33.7906 1C15.8739 1 1.34961 15.5243 1.34961 33.4409C1.34961 51.3576 15.8739 65.8819 33.7906 65.8819C51.7072 65.8819 66.2315 51.3576 66.2315 33.4409C66.2315 15.5243 51.7072 1 33.7906 1ZM33.7906 59.4397C19.4319 59.4397 7.79178 47.7996 7.79178 33.4409C7.79178 19.0823 19.4319 7.44217 33.7906 7.44217C48.1492 7.44217 59.7893 19.0823 59.7893 33.4409C59.7893 47.7996 48.1492 59.4397 33.7906 59.4397Z" fill="white" stroke="black" stroke-miterlimit="10"/>
<path d="M35.8883 33.1268L35.5347 33.4803L35.8883 33.8339L46.3607 44.3063C46.8316 44.7772 46.8315 45.5405 46.3608 46.0111L46.3607 46.0111C45.8899 46.4819 45.1268 46.4819 44.6559 46.0111L34.1835 35.5387L33.8299 35.1851L33.4764 35.5387L23.004 46.0111C22.5331 46.4819 21.77 46.4819 21.2992 46.0111C20.8283 45.5403 20.8283 44.7771 21.2992 44.3063L31.7716 33.8339L32.1251 33.4803L31.7716 33.1268L21.2992 22.6543C20.8283 22.1835 20.8283 21.4204 21.2992 20.9495C21.77 20.4787 22.5331 20.4787 23.004 20.9495L33.4764 31.422L33.8299 31.7755L34.1835 31.422L44.6559 20.9495C45.1268 20.4787 45.8899 20.4787 46.3607 20.9495C46.8316 21.4204 46.8316 22.1835 46.3607 22.6543L35.8883 33.1268Z" fill="white" stroke="black"/>
</svg>
