<svg width="40" height="41" viewBox="0 0 40 41" fill="none" xmlns="http://www.w3.org/2000/svg">
<path d="M38.0723 16.3658C37.0077 16.3658 36.1446 17.2289 36.1446 18.2935V20.2212V34.4381C36.1446 35.5026 35.2814 36.3658 34.2169 36.3658H5.78313C4.71855 36.3658 3.85542 35.5026 3.85542 34.4381V6.00432C3.85542 4.93975 4.71855 4.07661 5.78313 4.07661H20H21.9277C22.9923 4.07661 23.8554 3.21348 23.8554 2.1489C23.8554 1.08432 22.9923 0.221191 21.9277 0.221191H20H1.92771C0.863132 0.221191 0 1.08432 0 2.1489V38.2935C0 39.3581 0.863132 40.2212 1.92771 40.2212H38.0723C39.1369 40.2212 40 39.3581 40 38.2935V20.2212V18.2935C40 17.2289 39.1369 16.3658 38.0723 16.3658Z" fill="black"/>
<path d="M14.7779 28.307L11.6726 25.2017L10.1201 29.8597L14.7779 28.307Z" fill="black"/>
<path d="M32.3346 4.53985L12.1504 24.7241L15.2557 27.8293L35.4399 7.64512L32.3346 4.53985Z" fill="black"/>
<path d="M34.485 2.3899L32.813 4.06195L35.9183 7.16725L37.5903 5.4952C38.4479 4.63761 38.4479 3.24749 37.5903 2.3899C36.7327 1.53231 35.3426 1.53231 34.485 2.3899Z" fill="black"/>
</svg>
