<svg width="41" height="40" viewBox="0 0 41 40" fill="none" xmlns="http://www.w3.org/2000/svg">
<path d="M40.1862 35.6495L24.5367 20L40.1862 4.35053C41.1814 3.35533 41.1814 1.74161 40.1862 0.746406C39.191 -0.248802 37.5773 -0.248802 36.5821 0.746406L20.9326 16.3959L5.28315 0.746406C4.28794 -0.248802 2.67423 -0.248802 1.67902 0.746406C0.683815 1.74161 0.683815 3.35533 1.67902 4.35053L17.3285 20L1.67902 35.6495C0.683815 36.6447 0.683815 38.2584 1.67902 39.2536C2.67423 40.2488 4.28794 40.2488 5.28315 39.2536L20.9326 23.6041L36.5821 39.2536C37.5773 40.2488 39.191 40.2488 40.1862 39.2536C41.1814 38.2584 41.1814 36.6447 40.1862 35.6495Z" fill="black"/>
</svg>
