<svg width="50" height="50" viewBox="0 0 50 50" fill="none" xmlns="http://www.w3.org/2000/svg">
<path d="M24.853 1C11.6794 1 1 11.6792 1 24.853C1 38.0268 11.6792 48.706 24.853 48.706C38.0268 48.706 48.706 38.0268 48.706 24.853C48.706 11.6792 38.0266 1 24.853 1ZM24.853 45.1455C13.6455 45.1455 4.56024 36.0601 4.56024 24.8528C4.56024 13.6455 13.6457 4.56002 24.853 4.56002C36.0603 4.56002 45.1458 13.6455 45.1458 24.8528C45.1458 36.0601 36.0605 45.1455 24.853 45.1455Z" fill="white" stroke="white" stroke-width="1.4132" stroke-miterlimit="10"/>
<path d="M38.5005 19.9792H11.2061C10.0592 19.9792 9.12939 19.0494 9.12939 17.9025C9.12939 16.7556 10.0592 15.8258 11.2061 15.8258H38.5005C39.6474 15.8258 40.5772 16.7556 40.5772 17.9025C40.5772 19.0494 39.6474 19.9792 38.5005 19.9792Z" fill="white" stroke="white" stroke-width="1.4132" stroke-miterlimit="10"/>
<path d="M38.5005 26.9297H11.2061C10.0592 26.9297 9.12939 25.9999 9.12939 24.853C9.12939 23.7061 10.0592 22.7763 11.2061 22.7763H38.5005C39.6474 22.7763 40.5772 23.7061 40.5772 24.853C40.5772 25.9999 39.6474 26.9297 38.5005 26.9297Z" fill="white" stroke="white" stroke-width="1.4132" stroke-miterlimit="10"/>
<path d="M38.5005 33.8799H11.2061C10.0592 33.8799 9.12939 32.9501 9.12939 31.8033C9.12939 30.6564 10.0592 29.7266 11.2061 29.7266H38.5005C39.6474 29.7266 40.5772 30.6564 40.5772 31.8033C40.5772 32.9504 39.6474 33.8799 38.5005 33.8799Z" fill="white" stroke="white" stroke-width="1.4132" stroke-miterlimit="10"/>
</svg>
