<svg width="50" height="50" viewBox="0 0 50 50" fill="none" xmlns="http://www.w3.org/2000/svg">
<path d="M25 35.2299C30.6498 35.2299 35.2298 30.6498 35.2298 25C35.2298 19.3502 30.6498 14.7702 25 14.7702C19.3502 14.7702 14.7701 19.3502 14.7701 25C14.7701 30.6498 19.3502 35.2299 25 35.2299Z" fill="white"/>
<path d="M42.3563 0H7.64367C3.42216 0 0 3.42217 0 7.64368V42.3563C0 46.5778 3.42216 50 7.64367 50H42.3563C46.5778 50 50 46.5778 50 42.3563V7.64368C50 3.42217 46.5778 0 42.3563 0ZM25 37.7011C17.9853 37.7011 12.2988 32.0146 12.2988 25C12.2988 17.9853 17.9853 12.2988 25 12.2988C32.0147 12.2988 37.7012 17.9853 37.7012 25C37.7012 32.0146 32.0146 37.7011 25 37.7011ZM41.7816 12.069C39.655 12.069 37.931 10.345 37.931 8.21842C37.931 6.0918 39.655 4.36788 41.7816 4.36788C43.9082 4.36788 45.6321 6.09188 45.6321 8.21842C45.6321 10.345 43.9082 12.069 41.7816 12.069Z" fill="white"/>
</svg>
