<svg width="50" height="50" viewBox="0 0 50 50" fill="none" xmlns="http://www.w3.org/2000/svg">
<path d="M25 0C11.1929 0 0 11.1929 0 24.9999V25C0 38.8071 11.1929 49.9999 24.9999 49.9999H25C38.8071 49.9999 49.9999 38.807 49.9999 25V24.9999C50 11.1929 38.8071 0 25 0ZM37.0919 12.4784L34.0913 36.6226C34.0278 37.1338 33.4854 37.4357 33.0173 37.2202L23.7625 32.959C23.4882 32.8327 23.1651 32.8805 22.9391 33.0809L17.6086 37.8056C17.1583 38.2047 16.4448 37.9484 16.3515 37.354L14.9446 28.4011C14.9052 28.1503 14.7434 27.9358 14.5133 27.8288L8.81315 25.1802C8.22048 24.9048 8.22738 24.0599 8.82442 23.7941L36.0267 11.6888C36.5681 11.448 37.165 11.8904 37.0919 12.4784Z" fill="black"/>
<path d="M17.0272 37.2725L19.3262 28.3832L34.2695 13.9763L15.3413 27.3869L17.0272 37.2725Z" fill="black"/>
</svg>
