<svg width="75" height="75" viewBox="0 0 75 75" fill="none" xmlns="http://www.w3.org/2000/svg">
<path d="M38.2863 33.8112C38.2863 36.1077 38.2863 38.3326 38.2863 40.6703C40.7753 40.3712 43.1963 40.0879 45.613 39.7723C45.7702 39.7517 46.0144 39.4851 46.0168 39.3298C46.0452 37.5116 46.0351 35.6929 46.0351 33.8112C43.3987 33.8112 40.8588 33.8112 38.2863 33.8112Z" fill="white"/>
<path d="M45.9846 25.8958C43.3834 25.8958 40.8438 25.8958 38.2668 25.8958C38.2668 27.9078 38.2668 29.843 38.2668 31.8604C40.8883 31.8604 43.4312 31.8604 45.9846 31.8604C45.9846 29.8361 45.9846 27.8788 45.9846 25.8958Z" fill="white"/>
<path d="M31.5576 41.0285C31.6087 41.1945 31.8785 41.4238 32.0255 41.4093C33.4772 41.2657 34.9244 41.0768 36.3646 40.9017C36.3646 38.4648 36.3646 36.1556 36.3646 33.7952C34.0432 33.7952 31.7897 33.7952 29.3877 33.7952C30.1343 36.3021 30.832 38.6696 31.5576 41.0285Z" fill="white"/>
<path d="M28.7171 31.4745C28.7829 31.6792 29.1748 31.899 29.4213 31.9059C30.8041 31.9447 32.1886 31.9197 33.5726 31.9178C34.5015 31.9166 35.4304 31.9176 36.3698 31.9176C36.3698 29.8311 36.3698 27.8741 36.3698 25.8677C33.2566 25.8677 30.206 25.8677 27.0267 25.8677C27.6067 27.8217 28.1327 29.6574 28.7171 31.4745Z" fill="white"/>
<path d="M47.918 39.5119C49.7156 39.295 51.4395 39.0976 53.1585 38.8633C53.3326 38.8395 53.5813 38.6156 53.6176 38.4464C53.9438 36.9262 54.2303 35.3974 54.5426 33.7984C52.2875 33.7984 50.1251 33.7984 47.918 33.7984C47.918 35.7095 47.918 37.573 47.918 39.5119Z" fill="white"/>
<path d="M47.9125 31.877C50.2627 31.877 52.5502 31.877 54.9026 31.877C55.2924 29.8661 55.675 27.8916 56.0643 25.8831C53.269 25.8831 50.6044 25.8831 47.9125 25.8831C47.9125 27.9086 47.9125 29.8691 47.9125 31.877Z" fill="white"/>
<path d="M37.5 0C16.7893 0 0 16.7893 0 37.5C0 58.2107 16.7893 75 37.5 75C58.2107 75 75 58.2107 75 37.5C75 16.7893 58.2107 0 37.5 0ZM30.1258 59.6222C28.0184 59.6431 26.3151 57.9417 26.3091 55.8096C26.3032 53.6677 27.9746 52.006 30.1248 52.016C32.2281 52.0259 33.8803 53.6599 33.9152 55.7645C33.9498 57.8629 32.2424 59.6012 30.1258 59.6222ZM51.7164 59.6205C49.5936 59.5805 47.935 57.8568 47.9705 55.7277C48.0053 53.6402 49.6845 52.0074 51.7914 52.0123C53.926 52.0173 55.5979 53.7092 55.5799 55.8462C55.5622 57.9616 53.8235 59.6602 51.7164 59.6205ZM60.1553 24.8465C59.1598 30.117 58.1427 35.3835 57.1213 40.649C56.8881 41.8513 56.3075 42.3465 55.0819 42.4941C47.1218 43.4531 39.1627 44.4212 31.2002 45.3586C30.5107 45.4398 30.2148 45.7262 30.1574 46.3871C30.093 47.1289 30.6158 47.3738 31.1401 47.374C32.726 47.3746 34.313 47.2913 35.8978 47.2069C41.6964 46.8979 47.4941 46.5709 53.2928 46.2644C53.8496 46.235 54.4153 46.2672 54.9703 46.3296C55.8921 46.4331 56.472 47.0922 56.4172 47.9093C56.3616 48.7387 55.7194 49.2974 54.7863 49.3082C53.1653 49.327 51.5399 49.2655 49.9237 49.3622C44.6565 49.6772 39.3937 50.0661 34.1267 50.3846C32.9292 50.457 31.6939 50.5167 30.5238 50.3106C27.8136 49.8331 26.6207 47.8035 27.3305 45.149C27.3534 45.0637 27.365 44.9687 27.4113 44.8972C28.3508 43.4443 27.8812 42.0216 27.4298 40.5355C25.3654 33.7401 23.349 26.93 21.3466 20.1159C21.1402 19.4137 20.8651 19.1022 20.0876 19.1565C18.9724 19.2344 17.8476 19.1996 16.7275 19.1785C15.5492 19.1562 14.73 18.3403 14.7453 17.2529C14.7601 16.2048 15.5646 15.4108 16.704 15.395C18.5319 15.3697 20.3604 15.3766 22.1885 15.3873C23.482 15.395 24.0259 15.823 24.4105 17.0973C24.8954 18.7039 25.3734 20.3124 25.8755 21.9905C27.079 21.9905 28.2549 21.9905 29.4309 21.9905C38.8667 21.9905 48.3027 21.9899 57.7386 21.991C59.8257 21.9912 60.5401 22.8092 60.1553 24.8465Z" fill="white"/>
</svg>
