<svg width="32" height="32" viewBox="0 0 32 32" fill="none" xmlns="http://www.w3.org/2000/svg">
<path d="M27.7295 0H4.27046C1.91197 0 0 1.91197 0 4.27046V27.7295C0 30.088 1.91197 32 4.27046 32H27.7295C30.088 32 32 30.088 32 27.7295V4.27046C32 1.91197 30.088 0 27.7295 0ZM30.4057 26.1352C30.4057 28.4937 28.4937 30.4057 26.1352 30.4057H5.86477C3.50628 30.4057 1.59431 28.4937 1.59431 26.1352V5.86477C1.59431 3.50628 3.50628 1.59431 5.86477 1.59431H26.1352C28.4937 1.59431 30.4057 3.50628 30.4057 5.86477V26.1352Z" fill="#1D1D1B"/>
<path d="M28.4698 14.5196H17.4805V3.53027H14.5196V14.5196H3.53027V17.4805H14.5196V28.4698H17.4805V17.4805H28.4698V14.5196Z" fill="#1D1D1B"/>
</svg>
