<svg width="170" height="162" viewBox="0 0 170 162" fill="none" xmlns="http://www.w3.org/2000/svg">
<g clip-path="url(#clip0)">
<path d="M155.557 109.915C155.557 109.915 139.647 106.121 117.494 153.792C117.494 153.792 130.762 114.067 132.199 69.0919C140.104 68.999 146.194 67.874 146.194 67.874L145.338 64.6917C140.631 66.1795 136.26 67.0137 132.248 67.3761C132.619 52.6067 131.688 37.3211 128.572 22.7298C140.572 30.1767 155.011 41.2303 166.756 56.43C166.756 56.43 153.333 35.6696 127.785 19.2516C126.679 14.6385 125.344 10.1051 123.751 5.69168C123.751 5.69168 123.428 9.47609 122.391 15.9643C109.928 8.76562 94.9396 2.8362 77.5439 0.595737C69.6813 -0.416915 61.6943 -0.15292 53.9397 1.4931C43.2786 3.75596 29.7102 8.73808 29.7102 19.4385C29.7102 19.4385 29.3743 24.7577 35.7296 31.0877C35.3922 30.7411 24.8988 19.8086 35.738 10.5346C35.738 10.5346 58.2716 -9.00243 103.22 9.92551C104.075 10.2857 104.935 10.6374 105.797 10.9826C108.206 11.9479 114.195 14.4931 121.919 18.8088C120.074 29.5287 116.531 45.8934 110.013 64.3712C104.796 62.2937 102.012 59.9798 102.012 59.9798C104.127 62.2581 106.761 63.9945 109.681 65.3104C100.931 89.8299 86.9408 117.94 64.744 141.491C64.744 141.491 31.9437 173.313 8.81206 150.181C8.81206 150.181 -3.09046 138.799 8.65895 120.93C8.65895 120.93 18.9702 103.795 40.6331 110.894C40.6331 110.894 28.2716 102.816 15.1762 110.894C15.1762 110.894 0 119.828 0 135.249C0 150.671 11.7494 161.196 28.0271 161.196C28.0271 161.196 72.0874 166.214 107.336 83.2341C107.336 83.2341 110.058 77.8213 113.477 66.7504C118.097 68.2059 123.135 68.8404 127.843 69.0317C127.63 95.6588 124.777 128.189 115.168 158.871C115.168 158.871 139.402 113.831 156.903 113.587C156.903 113.587 168.408 114.566 168.408 129.742C168.408 129.742 169.509 143.205 156.903 151.038C156.903 151.038 169.999 146.632 169.999 127.294C169.999 127.294 170.366 109.915 155.557 109.915ZM124.302 12.0033C124.302 12.0033 124.614 13.9688 125.053 17.5465C124.618 17.2814 124.183 17.0163 123.741 16.7541C123.935 15.1977 124.122 13.6156 124.302 12.0033ZM113.804 65.6794C116.984 55.178 120.697 39.8946 123.372 19.6313C124.049 20.0186 124.738 20.4188 125.437 20.8323C126.511 30.4521 127.943 47.2269 127.852 67.5938C122.342 67.6397 117.634 66.8084 113.804 65.6794Z" fill="white"/>
<path d="M55.6135 153.364C55.6135 153.364 62.5413 148.407 63.9486 147.428C63.9486 147.428 64.4854 147.811 64.2842 148.882C64.1972 149.345 63.9824 149.772 63.7092 150.156C63.3689 150.635 62.7858 151.784 62.7858 154.037V158.565H61.8679V154.771C61.8679 154.771 61.8065 152.018 60.3379 153.608C60.3379 153.608 59.5642 154.431 59.3924 155.817C59.3601 156.077 59.3616 156.338 59.3752 156.601C59.4181 157.423 59.4339 160.095 57.8286 160.095H53.4527C53.1784 160.095 52.9042 159.989 52.7345 159.773C52.5554 159.545 52.4669 159.186 52.8337 158.662C53.0022 158.421 53.2607 158.262 53.5467 158.194C54.1353 158.056 55.2306 157.644 55.3198 156.485L55.6135 153.364Z" fill="white"/>
<path d="M112.645 35.6628C112.645 31.8537 109.758 29.5123 108.193 28.5235C107.441 28.048 106.53 27.8564 105.664 28.0598C103.436 28.5837 104.872 30.9248 104.872 30.9248C105.208 31.5292 105.653 31.7539 105.653 31.7539C104.983 30.6509 105.089 30.0609 105.316 29.7539C105.484 29.5274 105.771 29.4308 106.052 29.4532C107.138 29.5402 107.752 30.1883 108.097 30.8396C108.598 31.7851 108.618 32.9134 108.249 33.9176C107.531 35.8698 105.683 36.4658 105.683 36.4658C105.729 33.8956 103.448 31.9018 103.448 31.9018C103.408 31.8512 102.623 31.111 101.859 30.8128C101.192 30.5529 100.473 30.7464 99.7677 31.3412C98.2501 32.6215 99.9924 34.5532 99.9924 34.5532C99.3803 31.9676 100.635 31.8299 100.635 31.8299C102.96 31.6463 103.327 35.7311 103.327 35.7311C103.541 37.5056 102.455 37.4597 102.455 37.4597C102.394 35.0731 101.522 34.8436 101.522 34.8436C100.971 34.7823 100.665 35.6393 100.665 35.6393C102.088 34.0329 101.859 37.5441 101.859 37.5441C101.823 37.546 101.789 37.5478 101.754 37.5489C98.9687 37.6547 96.7914 35.1377 97.2551 32.3898C97.818 29.0545 99.1519 24.861 99.4445 23.9607C99.1978 24.821 99.3039 26.0936 99.3039 26.0936C99.3035 26.1241 99.5242 28.1865 99.5334 28.2147C100.084 29.9481 102.364 30.2235 103.414 28.9421C105.407 26.5114 103.618 25.3126 103.618 25.3126C103.309 25.1085 103.015 25.1044 102.77 25.1775C102.271 25.327 101.965 25.8358 102.01 26.3554C102.082 27.1907 102.937 27.0794 102.937 27.0794C102.051 26.3374 102.593 25.7712 102.593 25.7712C102.963 25.3501 103.31 25.53 103.544 25.7727C103.748 25.9835 103.881 26.2566 103.942 26.5434C104.272 28.077 103.09 28.6961 102.3 28.9351C101.823 29.0798 101.3 29.0783 100.861 28.8408C99.3799 28.0385 100.176 25.649 100.176 25.649C100.593 24.1685 100.904 20.7296 101.031 19.1398C101.09 18.4095 101.101 17.6755 101.03 16.9463C100.4 10.4797 95.2875 8.89981 92.9787 8.51538C92.3288 8.40707 91.6683 8.36595 91.0132 8.43644C84.8455 9.10139 85.0008 17.0822 85.0008 17.0822C79.5234 15.0014 75.7295 17.3575 75.7295 17.3575C72.9254 19.1214 72.4444 22.155 72.3842 23.6185C72.3688 23.9963 72.4095 24.3749 72.541 24.7296C72.7106 25.1878 72.6695 25.8028 72.6695 25.8028C72.18 25.7723 71.5984 25.1603 71.5984 25.1603C71.6598 25.6192 72.7613 26.2922 72.7613 26.2922C72.7613 26.6899 70.65 28.4648 70.65 28.4648C70.0688 29.1378 71.3539 29.6581 71.3539 29.6581C72.1187 29.8417 71.966 30.7596 71.966 30.7596C71.6469 30.7596 71.4905 31.0258 71.4248 31.1881C71.3958 31.2597 71.3891 31.3412 71.4237 31.4102C71.5742 31.7106 71.9964 31.9837 71.9964 31.9837C71.8521 32.2084 71.8253 32.3656 71.8327 32.4644C71.8378 32.5326 71.8709 32.5962 71.9248 32.6388C72.2656 32.9075 72.7921 32.963 72.7921 32.963C72.585 33.4803 72.6651 34.1801 72.7385 34.5785C72.7781 34.7933 72.8843 34.9916 73.0458 35.1388C74.4759 36.4401 76.2035 34.891 76.2035 34.891C77.0212 34.3659 77.4856 34.8289 77.7353 35.3345C77.9681 35.8063 78.0165 36.3442 77.9449 36.8656C77.6839 38.762 76.4476 39.8408 76.0511 40.1422C75.9725 40.2021 75.8807 40.237 75.782 40.2465C75.3593 40.288 74.9723 40.4987 74.6849 40.8112C73.0796 42.5567 70.4929 44.0456 69.6187 44.5225C69.4299 44.6254 69.2295 44.7047 69.0231 44.7652C66.6193 45.4687 65.0507 46.6558 65.0507 46.6558C63.8802 48.9275 64.9743 51.7044 65.6169 52.2397C65.7087 52.3161 65.7865 52.3976 65.8522 52.4813C66.1574 52.8679 66.2278 53.3831 66.1276 53.8652C65.886 55.025 66.0578 57.4113 65.7241 58.6347C65.4043 59.8074 64.8524 64.7411 64.7151 65.9939C64.6938 66.1874 64.6828 66.379 64.6813 66.574L64.5716 80.2709C64.5657 81.0236 64.464 81.7718 64.2573 82.4955C63.5556 84.9515 63.4598 88.0695 63.4598 88.0695L62.9703 108.386C62.7254 109.243 62.6645 110.773 63.0926 111.996C63.5207 113.22 62.8477 116.28 62.8477 116.28C61.6849 118.422 60.7669 126.316 60.7669 126.316C60.1549 130.294 57.5847 141.676 56.6058 143.634C55.6266 145.592 55.7797 148.071 55.7797 148.071L61.5626 143.757C60.9505 140.881 62.6641 136.78 62.6641 136.78L69.1355 122.752C70.3288 119.998 70.5123 118.07 70.5123 118.07L70.0534 112.195C70.0075 110.589 71.109 110.268 71.109 110.268C70.9254 112.563 72.8072 114.353 72.8072 114.353C73.312 114.674 75.0561 118.346 75.0561 118.346C75.9281 119.906 77.2591 125.964 77.2591 125.964L83.2561 117.29C83.1184 114.903 79.508 111.966 79.508 111.966L79.0949 110.406C79.2326 102.649 82.471 96.1777 82.471 96.1777C88.9222 97.2333 89.2839 93.837 89.2839 93.837C94.5619 93.837 94.6996 88.7425 94.6996 88.7425C97.8863 87.8771 98.9481 85.1234 99.1868 84.3541C99.2305 84.2128 99.294 84.0784 99.3667 83.9495C100.708 81.5699 98.2321 79.7469 98.2321 79.7469C99.4126 77.7209 98.422 73.1331 98.2549 72.409C98.2358 72.3459 98.2164 72.282 98.1973 72.2192C97.1306 69.4555 94.3126 70.6396 93.4167 71.1023C93.1883 71.2205 92.9853 71.3916 92.8671 71.62C92.559 72.2148 92.6952 73.1379 92.6952 73.1379C95.2654 73.0461 93.9194 75.3868 93.9194 75.3868C93.3686 76.5114 92.4621 76.8441 91.6932 76.8955C90.9776 76.9436 90.2719 76.702 89.6936 76.2775L83.7341 71.9075C83.5278 71.7562 83.3989 71.522 83.3809 71.2668L82.5114 58.8069C82.4854 58.4353 82.492 58.0634 82.5338 57.6933C82.8165 55.1892 82.9792 51.7572 83.0482 50.0327C83.0732 49.4037 83.2006 48.7832 83.4584 48.2089C84.5823 45.7041 84.3348 43.4574 84.1769 42.6089C84.131 42.3618 84.1049 42.1132 84.1097 41.862C84.1674 38.7808 83.4088 32.8411 83.4088 32.8411C91.1722 29.7414 88.9956 22.1557 88.5561 20.8548C88.5113 20.7223 88.4996 20.5824 88.5194 20.4436L88.5205 20.4348C88.569 20.0941 88.9046 19.8517 89.2354 19.9465C90.3454 20.2637 90.7213 22.897 90.7213 22.897C91.4362 26.2493 89.4506 30.0579 88.6512 31.4124C88.2782 32.0443 87.9268 32.6898 87.636 33.3635C85.9459 37.279 86.2999 40.2994 86.2999 40.2994C86.4493 41.4769 86.8345 41.9355 87.1818 42.1C87.506 42.2534 87.8934 42.0776 88.0322 41.7471C88.4684 40.7091 87.7458 40.5979 87.7458 40.5979C87.9628 40.8523 87.9463 41.1325 87.8519 41.3744C87.7219 41.7078 87.2475 41.7203 87.1025 41.3932C87.0603 41.2977 87.0221 41.203 86.988 41.1101C86.7522 40.4708 86.6656 39.7857 86.6968 39.105C86.9094 34.4379 90.4309 29.5828 90.4309 29.5828C89.8078 30.8903 89.3224 33.0331 89.0011 34.783C88.5381 37.3022 88.5514 39.8955 89.1484 42.3864C90.7155 48.9256 94.6996 49.1805 94.6996 49.1805C88.7331 46.0595 89.9723 35.0903 90.0182 34.9068C90.0641 34.7232 92.2671 23.9376 92.2671 23.9376C92.9097 20.5872 91.0738 15.8599 91.0738 15.8599C94.6188 21.7056 91.8999 29.3992 91.8999 29.3992C91.6925 30.1259 91.4406 31.8501 91.2611 33.2115C91.0305 34.9615 91.0015 36.7353 91.242 38.4841C92.3868 46.8104 97.7284 46.3349 97.7284 46.3349C101.981 46.3349 104.498 41.5845 104.498 41.5845C113.563 43.2129 112.645 35.6628 112.645 35.6628ZM79.7334 69.7816C78.9165 69.4621 77.345 68.7763 76.0467 67.782C74.4488 66.5582 73.8562 64.415 74.5953 62.5432C75.1233 61.2056 76.0287 59.383 77.4915 57.6745C77.6002 57.5475 77.8102 57.6096 77.8311 57.7755C78.0452 59.47 78.897 65.8084 80.0966 69.439C80.1704 69.6615 79.9523 69.8671 79.7334 69.7816ZM95.9039 75.3897C96.266 74.4505 95.9932 73.3831 95.2192 72.7395C95.2192 72.7395 96.089 72.9646 96.6104 73.8656C97.095 74.7031 97.0157 75.7488 96.5164 76.5775C95.9777 77.4712 94.867 78.6208 92.6383 78.9865C91.6084 79.1554 90.5499 79.1187 89.5335 78.883C88.8543 78.7254 88.1034 78.4574 87.6004 78.0021C87.6004 78.0021 94.103 80.0623 95.9039 75.3897ZM94.2094 84.1214C94.2094 84.1214 96.8101 84.1214 97.3608 81.5512C97.3608 81.5512 97.6058 85.0698 93.9645 85.0698C93.9645 85.0698 87.8776 85.4369 84.2202 80.6637C84.2206 80.6641 89.314 84.1214 94.2094 84.1214ZM91.647 89.6825C91.647 89.6825 86.9424 92.0232 82.8808 84.3127C82.8808 84.3127 87.5163 90.3482 91.647 89.6825ZM86.851 92.8266C86.851 92.8266 86.1049 93.5778 84.1086 93.2958C82.3378 93.0454 80.8471 91.8051 80.3532 90.0864C80.3466 90.0633 80.34 90.0405 80.3338 90.017C80.3338 90.0166 82.5368 93.4232 86.851 92.8266ZM98.6155 43.4882C98.6155 43.4882 93.2761 43.9931 93.2761 35.2269C93.2761 35.2269 95.1578 45.0946 100.619 41.6983C100.619 41.6983 98.7157 42.8082 96.719 41.3799C96.2105 41.0165 95.803 40.5314 95.4876 39.9917C94.9607 39.0899 94.1639 37.3639 93.7835 34.7033C93.5559 33.1106 93.6065 31.4914 93.8592 29.9022C94.5524 25.541 96.0622 13.2515 91.119 12.9368C91.119 12.9368 91.1036 12.1871 91.9451 12.1871C91.9451 12.1871 95.2496 12.8528 95.4563 18.2226C95.4563 18.2226 95.6172 24.2122 94.7448 31.7851C94.7448 31.7851 93.9286 40.6658 101.859 40.9643C101.859 40.9639 101.522 43.4882 98.6155 43.4882Z" fill="white"/>
<path d="M79.5225 131.884L85.6201 124.051C85.6201 124.051 85.9873 134.363 85.6201 136.566C85.6201 136.566 85.1611 140.329 86.2627 143.083C86.2627 143.083 87.869 146.571 89.2918 147.305C89.2918 147.305 91.9079 147.718 90.9441 150.518C90.9441 150.518 89.7508 152.446 89.659 154.74C89.659 154.74 89.7739 160.776 89.659 160.891C89.544 161.005 88.741 160.891 88.741 160.891V154.97C88.741 154.97 87.869 152.767 86.8593 154.97C86.8593 154.97 85.8037 160.386 85.0694 160.707H79.3323C79.3323 160.707 78.2308 160.156 79.3323 159.284C79.3323 159.284 81.7189 158.412 81.9943 158.274L81.9484 151.757C81.9484 151.757 81.9484 148.774 82.3156 147.076C82.3156 147.076 80.8994 135.326 79.5225 131.884Z" fill="white"/>
</g>
<defs>
<clipPath id="clip0">
<rect width="170" height="161.255" fill="white"/>
</clipPath>
</defs>
</svg>
