<svg width="35" height="35" viewBox="0 0 35 35" fill="none" xmlns="http://www.w3.org/2000/svg">
<path d="M31.8933 34.467L21.2341 23.8078C19.0132 25.4903 16.2457 26.4891 13.2445 26.4891C5.92979 26.489 -8.98674e-07 20.5593 -5.78935e-07 13.2445C-2.59196e-07 5.92972 5.92979 2.59199e-07 13.2445 5.78935e-07C20.5592 8.98671e-07 26.489 5.92979 26.489 13.2445C26.489 16.2456 25.4902 19.0131 23.8077 21.2341L34.4669 31.8933C35.1776 32.604 35.1776 33.7562 34.4669 34.467C33.7562 35.1777 32.604 35.1777 31.8933 34.467ZM22.2534 19.6798C23.5512 17.8662 24.3153 15.6447 24.3153 13.2445C24.3153 7.13028 19.3587 2.17369 13.2445 2.17369C7.13028 2.17369 2.17369 7.13028 2.17369 13.2445C2.17369 19.3587 7.13028 24.3153 13.2445 24.3153C15.6447 24.3153 17.8662 23.5513 19.6798 22.2534C20.6726 21.543 21.543 20.6726 22.2534 19.6798Z" fill="#1D1D1B"/>
</svg>
