<svg width="100" height="100" viewBox="0 0 100 100" fill="none" xmlns="http://www.w3.org/2000/svg">
<path d="M84.8781 66.9903C87.4839 66.9903 89.9581 67.5442 92.1951 68.533V33.4951V6.31068C92.1951 2.82524 89.3561 0 85.8537 0H6.34146C2.83902 0 0 2.82524 0 6.31068V82.8961V85.4369C0 88.9223 2.83902 91.7476 6.34146 91.7476H68.1702C67.3078 89.6505 66.8293 87.3573 66.8293 84.9514C66.8293 75.0315 74.9098 66.9903 84.8781 66.9903ZM45.8537 68.4466H21.9512L4.39024 76.0641V10.801V4.36893H10.8537H81.3415H87.8049V10.801V31.7961L81.9512 33.9806L75.122 49.5146L59.5122 56.7961L45.8537 68.4466Z" fill="#B8B8B8"/>
<path d="M87.8042 10.8009V4.3689H81.3408C84.9106 4.3689 87.8042 7.24851 87.8042 10.8009Z" fill="#B8B8B8"/>
<path d="M10.854 4.3689H4.39062V10.8009C4.39062 7.24851 7.28428 4.3689 10.854 4.3689Z" fill="#B8B8B8"/>
<path d="M23.4143 33.9806C28.2636 33.9806 32.1948 30.0685 32.1948 25.2427C32.1948 20.417 28.2636 16.5049 23.4143 16.5049C18.5649 16.5049 14.6338 20.417 14.6338 25.2427C14.6338 30.0685 18.5649 33.9806 23.4143 33.9806Z" fill="#B8B8B8"/>
<path d="M100.001 82.5243H87.3178V69.9029H82.4398V82.5243H69.7568V87.3786H82.4398V100H87.3178V87.3786H100.001V82.5243Z" fill="#B8B8B8"/>
</svg>
