<svg width="41" height="40" viewBox="0 0 41 40" fill="none" xmlns="http://www.w3.org/2000/svg">
<path d="M39.0049 16.2081C37.9403 16.2081 37.0772 17.0689 37.0772 18.1307V20.0533V34.2324C37.0772 35.2942 36.2141 36.1551 35.1495 36.1551H6.71575C5.65117 36.1551 4.78804 35.2942 4.78804 34.2324V5.87407C4.78804 4.81231 5.65117 3.95147 6.71575 3.95147H20.9326H22.8603C23.9249 3.95147 24.788 3.09062 24.788 2.02886C24.788 0.967107 23.9249 0.106262 22.8603 0.106262H20.9326H2.86033C1.79575 0.106262 0.932617 0.967107 0.932617 2.02886V38.0777C0.932617 39.1394 1.79575 40.0003 2.86033 40.0003H39.0049C40.0695 40.0003 40.9326 39.1394 40.9326 38.0777V20.0533V18.1307C40.9326 17.0689 40.0695 16.2081 39.0049 16.2081Z" fill="black"/>
<path d="M40.9233 0.00937268V0H28.9595C28.4089 0 27.9626 0.445082 27.9626 0.994226C27.9626 1.54337 28.4089 1.98845 28.9595 1.98845H37.6927L26.0486 13.6017C25.6592 13.9901 25.6592 14.6195 26.0486 15.0078C26.438 15.3962 27.0691 15.3962 27.4585 15.0078L38.9385 3.55826V11.941C38.9385 12.4902 39.3848 12.9353 39.9354 12.9353C40.486 12.9353 40.9323 12.4902 40.9323 11.941V0.00937268H40.9233Z" fill="black"/>
</svg>
